<?xml version="1.0" encoding="utf-8"?>
<svg version="1.1" id="Layer_1" xmlns="http://www.w3.org/2000/svg" xmlns:xlink="http://www.w3.org/1999/xlink" x="0px" y="0px" viewBox="0 0 383.6 104" style="enable-background:new 0 0 383.6 104; fill: #e93063; height: 96px;" xml:space="preserve">
	<path d="M66.4,89L56.1,99.2c-1.1,1.1-2.7,1.8-4.3,1.8H2.4C1.1,101,0,99.9,0,98.6V13.9c0-1.3,1.1-2.4,2.4-2.4h49.5c1.6,0,3.2-0.6,4.3-1.8l9.2-9.3c0.8-0.8,2.2-0.2,2.2,0.9v12.5c0,1-0.4,2-1.1,2.8L56.1,26.8c-1.1,1.1-2.7,1.8-4.3,1.8H20.4c-1.3,0-2.4,1.1-2.4,2.4v14.2c0,1.3,1.1,2.4,2.4,2.4h31.5c1.6,0,3.1-0.6,4.3-1.8l9.2-9.2c0.8-0.8,2.2-0.2,2.2,0.9v13.3c0,1-0.4,2-1.1,2.8L56.1,63.7c-1.1,1.1-2.7,1.8-4.3,1.8H20.4c-1.3,0-2.4,1.1-2.4,2.4v13.2c0,1.3,1.1,2.4,2.4,2.4h31.5c1.6,0,3.1-0.6,4.3-1.8l9.2-9.2c0.8-0.8,2.2-0.2,2.2,0.9v12.8C67.5,87.3,67.1,88.3,66.4,89z"/>
	<g>
		<path d="M86.6,65.8c0-10.1,7.4-18.2,18-18.2c10.4,0,17.4,7.8,17.4,19.1v2H96.1c0.6,4.4,4.1,8.1,10,8.1c3,0,7.1-1.3,9.3-3.5l4,5.9c-3.5,3.2-8.9,4.8-14.3,4.8C94.5,84.1,86.6,77,86.6,65.8z M104.6,54.9c-5.7,0-8.1,4.2-8.6,7.7h17.1C112.9,59.3,110.6,54.9,104.6,54.9z"/>
		<path d="M128.6,83.2v-48h9.1v48H128.6z"/>
		<path d="M144.6,65.8c0-10.1,7.4-18.2,18-18.2c10.4,0,17.4,7.8,17.4,19.1v2h-25.8c0.6,4.4,4.1,8.1,10,8.1c3,0,7.1-1.3,9.3-3.5l4,5.9c-3.5,3.2-8.9,4.8-14.3,4.8C152.6,84.1,144.6,77,144.6,65.8z M162.6,54.9c-5.7,0-8.1,4.2-8.6,7.7h17.1C170.9,59.3,168.6,54.9,162.6,54.9z"/>
		<path d="M229.7,83.2v-22c0-3.2-1.4-5.5-5.2-5.5c-3.2,0-5.9,2.2-7.2,4v23.5h-9.2v-22c0-3.2-1.4-5.5-5.2-5.5c-3.2,0-5.8,2.2-7.2,4.1v23.4h-9.1V48.5h9.1V53c1.4-2.1,6-5.4,11.4-5.4c5.1,0,8.4,2.4,9.6,6.3c2-3.2,6.6-6.3,12-6.3c6.4,0,10.2,3.4,10.2,10.5v25.1H229.7z"/>
		<path d="M245.7,65.8c0-10.1,7.4-18.2,18-18.2c10.4,0,17.4,7.8,17.4,19.1v2h-25.8c0.6,4.4,4.1,8.1,10,8.1c3,0,7.1-1.3,9.3-3.5l4,5.9c-3.5,3.2-8.9,4.8-14.3,4.8C253.7,84.1,245.7,77,245.7,65.8z M263.7,54.9c-5.7,0-8.1,4.2-8.6,7.7h17.1C272.1,59.3,269.8,54.9,263.7,54.9z"/>
		<path d="M311.2,83.2v-21c0-4.8-2.5-6.5-6.4-6.5c-3.6,0-6.4,2-7.9,4.1v23.4h-9.1V48.5h9.1V53c2.2-2.7,6.5-5.4,12.2-5.4c7.6,0,11.3,4.3,11.3,11.1v24.5H311.2z"/>
		<path d="M331.2,74.6V56.5h-5.8v-8h5.8V39h9.2v9.5h7.1v8h-7.1v15.7c0,2.2,1.2,3.8,3.2,3.8c1.4,0,2.7-0.5,3.2-1l1.9,6.9c-1.4,1.2-3.8,2.2-7.6,2.2C334.7,84.1,331.2,80.8,331.2,74.6z"/>
		<path d="M350.7,78.7l4-6.4c2.5,2.4,7.7,4.8,12,4.8c4,0,5.8-1.6,5.8-3.7c0-5.8-20.7-1.1-20.7-14.8c0-5.8,5.1-10.9,14.3-10.9c5.9,0,10.6,2,14,4.8l-3.7,6.3c-2.1-2.2-6-4-10.3-4c-3.3,0-5.5,1.5-5.5,3.5c0,5.2,20.6,0.9,20.6,14.9c0,6.3-5.4,11.2-15,11.2C360.2,84.1,354.4,82.1,350.7,78.7z"/>
	</g>
</svg>
