<svg version="1" xmlns="http://www.w3.org/2000/svg" width="1301.333" height="1301.333" viewBox="0 0 976.000000 976.000000"><path d="M796.2 3.1c-1.5.9-13.1 12.1-25.9 25-51 51.4-70.1 70.4-71.5 71.4-8.8 5.8-11.1 7.1-19.3 10.1-2.5.9-3.1 1-7.9 1.8-2.1.3-4.2.9-4.7 1.2-.5.3-.9 0-.9-.6s-.5-.8-1-.5c-1.4.9-17.8 1.2-19.1.4-.6-.3-2.8-.3-5 .1s-4.2.3-4.5-.1c-.3-.5-1-.6-1.7-.2-1.7 1-21 1-22.4 0-.8-.6-1.3-.6-1.3 0 0 .4-2.6.7-5.7.6-7.2-.4-6.9-.4-11.9-.1-2.2.1-4.5-.1-5.1-.5-.5-.4-1.3-.4-1.7 0-1 1-23.9 1-25.3 0-.7-.5-1.3-.6-1.3-.1s-3.1.9-7 .9c-3.8 0-7-.3-7-.7 0-.4-1.1-.3-2.5.2-1.5.6-2.6.6-3-.1-.4-.5-1.1-.6-1.8-.2-1.7 1-21 1-22.4 0-.8-.6-1.3-.6-1.3 0 0 .4-2.6.7-5.7.6-7.2-.4-6.9-.4-11.9-.1-2.2.1-4.5-.1-5.1-.5-.5-.4-1.3-.4-1.7 0-1 1-23.9 1-25.3 0-.7-.5-1.3-.6-1.3-.1s-3.1.9-7 .9c-3.8 0-7-.3-7-.7 0-.4-1.1-.3-2.5.2-1.5.6-2.6.6-3-.1-.4-.5-1.1-.6-1.8-.2-1.7 1-21 1-22.4 0-.8-.6-1.3-.6-1.3 0 0 .4-2.6.7-5.7.6-7.2-.4-6.9-.4-11.9-.1-2.2.1-4.5-.1-5.1-.5-.5-.4-1.3-.4-1.7 0-.9.9-22.7.9-23.3 0-.3-.4-1-.4-1.6 0-.7.5-3.7.7-6.7.6-3-.2-7.1-.3-9-.2-1.9.1-5.9.2-8.8.3-3 .1-5.6-.2-5.9-.7-.2-.4-1-.4-1.6 0-.7.5-3.7.7-6.7.6-3-.2-7.1-.3-9-.2-1.9.1-5.9.2-8.8.3-3 .1-5.6-.2-5.9-.7-.2-.4-1-.4-1.6 0-.7.5-3.7.7-6.7.6-3-.2-7.1-.3-9-.2-1.9.1-5.9.2-8.8.3-3 .1-5.6-.2-5.9-.7-.2-.4-1-.4-1.6 0-.7.5-3.7.7-6.7.6-7.4-.4-12.2-.3-13.1.3-.4.2-1 0-1.4-.6-.4-.6-1.1-.7-1.8-.3-1.7 1-21 1-22.4 0-.8-.6-1.3-.6-1.3 0 0 .4-2.6.7-5.8.6-7.1-.4-6.8-.4-11.8-.1-2.2.1-4.5-.1-5.1-.5-.5-.4-1.3-.4-1.6 0-.4.3-5.7.7-11.9.7-9.7.1-12 .5-15.9 2.5-5.3 2.7-10.5 8.8-11.9 14.2-.7 2.4-.9 146.9-.8 417 .3 401.4.4 413.5 2.2 416.9 2.4 4.6 7.1 8.9 12.1 11.1 3.8 1.8 13.9 1.9 248.5 1.9 267.3 0 250.2.3 262.8-5.8 3.1-1.5 5.9-3 6-3.5.2-.4.8-.7 1.3-.7 1.5 0 5.7-4.1 60.3-58.7 35.6-35.6 52.1-52.7 53.9-56.1 1.5-2.7 3-7.4 3.3-10.3.6-4.7.9-130.5.4-131.9-.1-.3-.3-1-.4-1.5-.7-4.6-4.7-8.6-9.1-9.2-6.8-.8-6.7-.9-56 48.3-27.6 27.6-49.8 48.9-53 50.9-5.3 3.4-13.3 7-17.7 7.9-1.3.3-3.4.8-4.8 1.1-1.4.3-73.5.6-160.3.7H354l-5.3-2.7c-2.8-1.5-6.3-4.1-7.7-5.7-5.6-7-5.5-6.5-5.4-79.8 0-66 .1-67.6 2.1-72 2.4-5.3 4.7-7.9 10-11.1l3.8-2.4 60-.2c33-.2 105.2-.4 160.5-.6 55.3-.2 101.2-.5 102-.8.8-.3 3.2-.9 5.3-1.4 2-.4 4-1.1 4.3-1.6.3-.5 1.2-.9 2-.9 5 0 16.2-10.2 68-62 53.5-53.5 57.2-57.5 59.2-65.7.4-1.6.7-34.4.7-73V357l-3-3c-3.4-3.3-8.8-4.6-12.9-3-1.5.5-23.6 21.8-49 47.3-25.5 25.5-48.6 48-51.4 50-8.2 5.8-15.7 8.8-26.2 10.3-1.9.3-73.8.6-159.7.6l-156.1.1-5.6-2.7c-5.8-2.8-10.3-8-12.2-14.1-.6-1.8-1-31.3-.9-75.5.1-72 .1-72.5 2.2-77 2.8-5.9 3.9-7.1 9.2-10.4 3.7-2.4 5.7-2.9 12.8-3.2 4.6-.2 8.8-.6 9.3-.9.6-.3 1-.3 1 .2 0 .9 96.1.9 98.5 0 .8-.4 1.5-.3 1.5.1 0 .8 92.2.7 94.5-.1.8-.4 1.5-.3 1.5.1 0 .8 92.2.7 94.5-.1.8-.4 1.5-.2 1.5.3s.6.7 1.3.5c.6-.2 3.2-.6 5.7-.9 9.2-.9 20-4.9 27-10 3.3-2.5 109-107.4 109-108.3 0-.2.9-1.4 2-2.6 1.1-1.2 2.9-5 4-8.6 1.9-6.1 2-9.3 2-71-.1-61.9-.1-64.8-2-67.8-2.1-3.5-7.2-6.4-10.8-6.1-1.3.2-3.6 1-5 1.9z"/></svg>